<?xml version="1.0" encoding="utf-8"?>
<!-- Generator: Adobe Illustrator 16.0.0, SVG Export Plug-In . SVG Version: 6.00 Build 0)  -->
<!DOCTYPE svg PUBLIC "-//W3C//DTD SVG 1.1//EN" "http://www.w3.org/Graphics/SVG/1.1/DTD/svg11.dtd">
<svg version="1.1" id="Layer_1" xmlns="http://www.w3.org/2000/svg" xmlns:xlink="http://www.w3.org/1999/xlink" x="0px" y="0px"
	 width="99.555px" height="80.673px" viewBox="0 -0.028 99.555 80.673" enable-background="new 0 -0.028 99.555 80.673"
	 xml:space="preserve">
<g id="Layer_2" display="none">
	<g display="inline">
		<path fill="#231F20" d="M41.345,24.735c-0.005,0.521,0.045,0.882,0.143,1.085c0.167,0.365,0.523,0.644,1.062,0.817
			c0.14-0.029,0.325-0.04,0.556-0.043c1.028-0.045,1.601-0.256,1.738-0.629c0.109-2.707,0.148-6.794,0.12-12.294
			c-0.038-5.488,0-9.581,0.105-12.283c-0.302-0.369-0.694-0.621-1.186-0.748c-0.396-0.062-0.784-0.127-1.179-0.188
			c-0.272,0.012-0.512,0.115-0.701,0.332c-0.196,0.21-0.37,0.435-0.524,0.669c0.072,2.488,0.018,6.172-0.159,11.053
			c-0.173,4.878-0.217,8.562-0.118,11.052C41.299,23.833,41.345,24.226,41.345,24.735 M59.324,26.103
			c3.776,0.574,7.253,0.775,10.42,0.625c0.396-0.228,0.608-0.569,0.651-1.034c0.026-0.229-0.048-0.771-0.204-1.63
			c-0.724-0.601-1.628-0.953-2.723-1.047c-0.37-0.039-0.949-0.05-1.736-0.039c-0.789,0.017-1.387,0-1.812-0.034
			c-0.413-0.04-0.806-0.11-1.171-0.214l-0.559-0.503c0.226-3.51,0.445-7.006,0.664-10.487C63.11,7.653,63.23,4.115,63.225,1.12
			c-0.431-0.693-0.915-1.062-1.474-1.115C61.662-0.002,61.577,0,61.477,0.018c-0.108,0.153-0.447,0.252-1.036,0.29
			c-0.442,0.032-0.667,0.246-0.68,0.646c-0.067,3.001-0.226,6.664-0.495,10.953c-0.231,3.646-0.479,7.292-0.738,10.931l0.06,1.699
			C58.621,25.186,58.867,25.709,59.324,26.103 M21.528,28.499c0.228-0.042,0.586-0.079,1.071-0.121
			c0.495-0.034,0.835-0.072,1.041-0.111c0.937-0.163,1.441-0.595,1.502-1.295c-0.136-3.958-0.282-7.924-0.438-11.86
			c-0.182-4.739-0.471-8.735-0.88-11.971c-0.73-0.529-1.485-0.729-2.269-0.588c-0.621,0.109-0.936,0.445-0.95,1.021
			c-0.062,1.781-0.039,4.534,0.094,8.255c0.128,3.725,0.154,6.523,0.083,8.405c-0.216,0.136-0.404,0.062-0.579-0.199
			c-0.181-0.269-0.294-0.413-0.351-0.454c-2.729-6.229-4.812-11.032-6.232-14.42c-0.523-0.289-0.913-0.487-1.171-0.61
			c-0.709,0.132-1.432,0.257-2.167,0.385C9.521,5.16,9.162,5.663,9.2,6.436c0.229,6.764,0.384,11.842,0.464,15.229
			c-0.08,0.365-0.152,0.555-0.223,0.571c-0.092,0.012-0.193-0.025-0.307-0.124C6.309,15.597,4.5,10.848,3.711,7.866
			C3.59,7.578,3.335,7.33,2.945,7.113C2.732,7.01,2.404,6.872,1.943,6.692C0.846,6.882,0.198,7.221,0,7.708
			c0.885,3.007,2.195,6.795,3.926,11.375c1.479,3.823,2.948,7.653,4.405,11.502c0.244,0.313,0.623,0.515,1.141,0.613
			c0.282-0.124,0.856-0.221,1.711-0.309c0.863-0.08,1.458-0.186,1.792-0.308c0.571-0.244,0.866-0.675,0.873-1.297
			c0.048-0.765,0.007-2.206-0.128-4.333c-0.092-1.825-0.069-3.264,0.051-4.304c-0.184-0.646-0.271-1.54-0.264-2.682
			c0-1.224-0.058-2.112-0.188-2.658c-0.064-0.385,0.073-0.606,0.414-0.673c0.188-0.038,0.359,0.091,0.531,0.365
			c2.453,5.805,4.307,10.149,5.562,13.042c0.381,0.429,0.76,0.662,1.144,0.694C21.141,28.613,21.325,28.535,21.528,28.499
			 M93.076,27.043c-0.366-0.077-0.939-0.168-1.721-0.253c-0.777-0.087-1.379-0.183-1.792-0.27c-0.403-0.096-0.789-0.21-1.14-0.365
			l-0.487-0.571c0.673-3.446,1.345-6.887,2.005-10.313c0.771-4.021,1.347-7.515,1.711-10.483c-0.334-0.741-0.771-1.176-1.308-1.291
			c-0.094-0.019-0.182-0.03-0.277-0.026C89.943,3.609,89.583,3.665,89,3.627c-0.442-0.022-0.696,0.158-0.755,0.544
			c-0.448,2.978-1.074,6.581-1.89,10.806c-0.696,3.588-1.403,7.173-2.127,10.76l-0.155,1.675c-0.053,0.653,0.131,1.208,0.525,1.651
			c3.683,1.054,7.094,1.704,10.261,1.947c0.416-0.161,0.674-0.479,0.771-0.934c0.056-0.232,0.056-0.773,0.013-1.646
			C95.005,27.747,94.148,27.279,93.076,27.043 M97.988,1.902c-0.862,0-1.567,0.703-1.567,1.567c0,0.865,0.705,1.568,1.567,1.568
			c0.865,0,1.567-0.704,1.567-1.568S98.853,1.902,97.988,1.902 M97.988,4.956c-0.817,0-1.484-0.667-1.484-1.484
			c0-0.818,0.667-1.485,1.484-1.485c0.818,0,1.484,0.667,1.484,1.485C99.472,4.289,98.806,4.956,97.988,4.956 M98.239,3.51V3.504
			c0.189-0.063,0.341-0.221,0.341-0.459c0-0.138-0.052-0.261-0.143-0.341c-0.11-0.103-0.271-0.146-0.521-0.146
			c-0.159,0-0.327,0.013-0.444,0.036v1.773h0.232V3.589h0.217c0.212,0.009,0.308,0.103,0.361,0.35
			c0.05,0.226,0.09,0.379,0.117,0.431h0.24c-0.037-0.069-0.08-0.242-0.139-0.494C98.46,3.688,98.378,3.56,98.239,3.51 M97.941,3.413
			h-0.234V2.757c0.036-0.01,0.114-0.021,0.229-0.021c0.245,0.002,0.412,0.104,0.412,0.335C98.345,3.277,98.189,3.413,97.941,3.413"
			/>
	</g>
	<path display="inline" d="M32.286,62.852H30.89c0,0-0.901-0.451-0.947-1.126c-0.045-0.677,0-3.108,0-3.108s0.271-0.405,0.406-0.856
		c0.135-0.449,0.406-0.721-0.18-0.9c-0.585-0.18-1.531-1.375-1.577-1.464c-0.338-0.652,0.205-4.331,0.113-5.091
		c-0.42-3.476,0.03-9.986,0.605-11.424c0.182-0.45,1.849-2.657,3.649-2.657s11.625,1.354,16.762,1.354
		c5.136,0,6.382-0.496,7.088-0.834s2.756-1.87,2.824-1.915c0.067-0.045,4.28-0.112,4.572-0.271c0.294-0.158,1.375-1.262,2.142-1.239
		c0.768,0.023,0.923,0.361,1.238,0.925c0.313,0.562,1.645,1.646,1.645,1.646s0.315,0.72,0.586,0.99
		c0.271,0.271,2.365,2.118,2.5,2.229c0.137,0.111,0.361,1.104,0,1.555c-0.358,0.449-1.146,1.06-2.025,1.104
		s-2.435,0.474-2.546,0.698c-0.112,0.225-0.99,0.067-1.284,0.271c-0.292,0.203-3.13,3.447-3.446,4.326
		c-0.313,0.878-1.036,2.951-1.419,3.515c-0.384,0.562-2.185,2.208-2.546,3.379c-0.36,1.171-0.855,2.365-0.743,3.244
		c0.112,0.878-0.045,1.893,0.136,2.456c0.182,0.562,0.877,1.509,1.015,1.757c0.136,0.248-0.044,0.405-0.044,0.405
		s-1.623,0.091-1.851-0.021c-0.225-0.111-0.605-1.082-0.743-1.082c-0.135,0-0.65,0.158-0.834-0.066
		c-0.18-0.227-0.154-2.771-0.109-3.356c0.045-0.585-0.383-3.672-0.856-4.46c-0.474-0.789-1.217-1.24-2.141-1.217
		c-0.924,0.021-4.936,0.045-5.902,0.562c-0.969,0.519-1.577,1.218-1.667,1.308c-0.09,0.091-0.428,0.158-0.541,0.021
		c-0.112-0.135-1.733-1.306-2.567-1.778c-0.833-0.475-3.223-1.601-3.764-1.577c-0.541,0.021-0.541-0.157-0.676,0.112
		c-0.135,0.271-0.383,0.946-0.271,1.51c0.111,0.562,0.338,2.389,0.314,2.975c-0.021,0.585-0.09,0.855-0.338,0.99
		c-0.248,0.136-0.563-0.36-0.766-0.631c-0.203-0.271-0.405-0.585-0.608-0.359c-0.203,0.225-0.36,0.314-0.383,0.585
		s-0.18,5.43,0,5.654c0.18,0.226,0.721,1.148,0.991,1.353c0.27,0.204,0.136,0.136-0.182,0.182c-0.314,0.045-1.848,0.181-2.118-0.022
		c-0.271-0.202-0.697-0.833-0.854-1.216c-0.158-0.384-0.383-1.037-0.451-1.239c-0.068-0.203-0.314-0.136-0.314-0.136
		s-0.292,0.09-0.315,0.247c-0.022,0.158-0.045,2.254-0.045,2.254s0.225,0.066,0.225,0.18C32.646,62.694,32.286,62.852,32.286,62.852
		z"/>
	<g display="inline">
		<path d="M8.766,70.981h1.089v6.06h1.485v0.821H8.766V70.981z"/>
		<path d="M15.003,70.981h2.663v0.821h-1.573v2.06h1.216v0.821h-1.216v2.356h1.615v0.821h-2.705V70.981z"/>
		<path d="M22.257,70.981h1.254l1.329,6.88h-1.104l-0.196-1.231h-1.312l-0.188,1.231h-1.106L22.257,70.981z M23.414,75.844
			l-0.505-3.428h-0.048l-0.509,3.428H23.414z"/>
		<path d="M29.171,71.802h-1.157v-0.821h3.399v0.821H30.26v6.06h-1.089V71.802z"/>
		<path d="M35.122,70.981h1.089v2.88h1.292v-2.88h1.089v6.88h-1.089v-3.179h-1.292v3.179h-1.089V70.981z"/>
		<path d="M42.801,70.981h2.663v0.821h-1.573v2.06h1.216v0.821h-1.216v2.356h1.615v0.821h-2.705V70.981z"/>
		<path d="M49.265,70.981h1.182c0.136,0,0.282,0.005,0.444,0.017c0.161,0.011,0.322,0.037,0.483,0.079
			c0.162,0.042,0.315,0.104,0.467,0.188s0.283,0.197,0.4,0.343c0.114,0.146,0.209,0.327,0.277,0.546
			c0.07,0.22,0.105,0.483,0.105,0.796v0.173c0,0.522-0.079,0.949-0.236,1.278c-0.156,0.329-0.388,0.565-0.693,0.711l1.152,2.751
			h-1.152l-0.953-2.573h-0.408v2.573h-1.068V70.981z M50.498,74.535c0.189,0,0.352-0.021,0.482-0.062s0.239-0.107,0.32-0.204
			s0.14-0.223,0.177-0.379c0.036-0.157,0.057-0.352,0.057-0.582v-0.544c0-0.178-0.02-0.33-0.053-0.459
			c-0.031-0.13-0.09-0.235-0.17-0.317c-0.08-0.083-0.186-0.146-0.316-0.188c-0.134-0.039-0.297-0.06-0.497-0.06h-0.164v2.792
			L50.498,74.535L50.498,74.535z"/>
		<path d="M62.912,77.926c-0.084,0-0.185-0.009-0.294-0.025c-0.112-0.018-0.229-0.054-0.35-0.11
			c-0.119-0.057-0.234-0.137-0.352-0.24c-0.114-0.103-0.218-0.239-0.311-0.41c-0.092-0.172-0.165-0.381-0.221-0.629
			c-0.057-0.247-0.084-0.544-0.084-0.888v-2.438c0-0.348,0.029-0.644,0.088-0.889c0.061-0.245,0.138-0.453,0.235-0.621
			c0.099-0.167,0.211-0.301,0.339-0.4c0.128-0.099,0.26-0.175,0.396-0.229c0.139-0.053,0.273-0.087,0.408-0.104
			c0.136-0.018,0.259-0.023,0.374-0.023c0.292,0,0.538,0.039,0.738,0.115c0.201,0.076,0.363,0.181,0.488,0.313
			s0.215,0.288,0.27,0.465c0.055,0.178,0.082,0.366,0.082,0.563c0,0.146-0.01,0.284-0.027,0.409
			c-0.019,0.125-0.043,0.262-0.072,0.413h-0.87v-0.326c0-0.755-0.212-1.132-0.637-1.132c-0.114,0-0.216,0.018-0.3,0.056
			s-0.152,0.102-0.21,0.191c-0.057,0.089-0.098,0.209-0.124,0.356c-0.025,0.146-0.04,0.331-0.04,0.552v3.118
			c0,0.215,0.015,0.395,0.04,0.535c0.026,0.143,0.067,0.257,0.122,0.343c0.057,0.086,0.123,0.146,0.206,0.184
			c0.082,0.035,0.184,0.055,0.296,0.055c0.121,0,0.227-0.029,0.312-0.091c0.087-0.062,0.158-0.144,0.215-0.248
			c0.056-0.104,0.098-0.229,0.124-0.371c0.026-0.143,0.04-0.296,0.04-0.463v-0.897h-0.562v-0.686h1.619v3.483H64.13l-0.118-0.652
			c-0.138,0.255-0.295,0.438-0.474,0.55C63.367,77.871,63.156,77.926,62.912,77.926z"/>
		<path d="M70.427,77.922c-0.115,0-0.239-0.009-0.374-0.025c-0.135-0.019-0.268-0.055-0.399-0.11
			c-0.132-0.057-0.259-0.137-0.381-0.24c-0.122-0.104-0.229-0.239-0.322-0.409c-0.096-0.169-0.171-0.378-0.227-0.626
			c-0.057-0.247-0.085-0.544-0.085-0.888v-2.438c0-0.348,0.029-0.644,0.087-0.889c0.06-0.245,0.134-0.453,0.229-0.621
			c0.095-0.167,0.203-0.301,0.323-0.4c0.122-0.1,0.25-0.175,0.385-0.229c0.134-0.052,0.266-0.087,0.396-0.104
			c0.132-0.018,0.254-0.023,0.366-0.023c0.106,0,0.226,0.007,0.354,0.021c0.132,0.016,0.262,0.048,0.393,0.098
			c0.13,0.049,0.257,0.123,0.381,0.221c0.123,0.099,0.232,0.231,0.328,0.399c0.095,0.168,0.171,0.376,0.229,0.625
			c0.06,0.249,0.089,0.548,0.089,0.899v2.438c0,0.341-0.029,0.634-0.091,0.88c-0.059,0.246-0.136,0.454-0.229,0.624
			s-0.205,0.309-0.33,0.411c-0.125,0.104-0.252,0.185-0.383,0.241c-0.13,0.059-0.262,0.097-0.391,0.115
			C70.647,77.912,70.531,77.922,70.427,77.922z M70.427,77.137c0.106,0,0.2-0.019,0.28-0.054c0.079-0.035,0.146-0.096,0.195-0.182
			c0.053-0.086,0.093-0.198,0.118-0.34c0.026-0.142,0.04-0.318,0.04-0.534v-3.13c0-0.22-0.014-0.403-0.04-0.552
			c-0.025-0.147-0.064-0.268-0.118-0.356c-0.052-0.091-0.116-0.153-0.195-0.191c-0.08-0.038-0.174-0.056-0.28-0.056
			c-0.109,0-0.204,0.018-0.286,0.056c-0.081,0.038-0.146,0.102-0.201,0.191c-0.054,0.089-0.094,0.209-0.12,0.356
			c-0.025,0.146-0.04,0.332-0.04,0.552v3.13c0,0.216,0.015,0.394,0.04,0.534c0.026,0.142,0.066,0.254,0.12,0.34
			c0.055,0.086,0.12,0.146,0.201,0.182C70.223,77.119,70.318,77.137,70.427,77.137z"/>
		<path d="M77.791,77.922c-0.115,0-0.239-0.009-0.374-0.025c-0.135-0.019-0.27-0.055-0.399-0.11
			c-0.132-0.057-0.259-0.137-0.381-0.24c-0.122-0.104-0.229-0.239-0.324-0.409c-0.094-0.169-0.169-0.378-0.225-0.626
			c-0.057-0.247-0.085-0.544-0.085-0.888v-2.438c0-0.348,0.029-0.644,0.087-0.889s0.134-0.453,0.229-0.621
			c0.097-0.167,0.203-0.301,0.325-0.4c0.122-0.099,0.25-0.175,0.383-0.229c0.136-0.052,0.268-0.087,0.397-0.104
			c0.132-0.018,0.254-0.023,0.366-0.023c0.104,0,0.226,0.007,0.354,0.021c0.131,0.016,0.263,0.048,0.394,0.098
			c0.13,0.049,0.257,0.123,0.381,0.221c0.123,0.099,0.23,0.231,0.328,0.399c0.095,0.168,0.171,0.376,0.229,0.625
			c0.06,0.249,0.087,0.548,0.087,0.899v2.438c0,0.341-0.027,0.634-0.089,0.88c-0.059,0.246-0.136,0.454-0.229,0.624
			c-0.097,0.17-0.205,0.309-0.33,0.411c-0.125,0.104-0.252,0.185-0.385,0.241c-0.13,0.059-0.26,0.097-0.389,0.115
			C78.011,77.912,77.894,77.922,77.791,77.922z M77.791,77.137c0.104,0,0.2-0.019,0.278-0.054c0.079-0.035,0.146-0.096,0.197-0.182
			s0.091-0.198,0.118-0.34c0.026-0.142,0.04-0.318,0.04-0.534v-3.13c0-0.22-0.014-0.403-0.04-0.552
			c-0.027-0.146-0.066-0.268-0.118-0.356c-0.052-0.09-0.118-0.153-0.197-0.191c-0.078-0.038-0.174-0.056-0.278-0.056
			c-0.109,0-0.204,0.018-0.286,0.056c-0.081,0.038-0.148,0.102-0.201,0.191c-0.054,0.09-0.094,0.209-0.12,0.356
			c-0.025,0.146-0.04,0.332-0.04,0.552v3.13c0,0.216,0.015,0.394,0.04,0.534c0.026,0.142,0.066,0.254,0.12,0.34
			c0.053,0.086,0.12,0.146,0.201,0.182S77.681,77.137,77.791,77.137z"/>
		<path d="M83.565,70.981h1.132c0.173,0,0.35,0.005,0.532,0.015c0.186,0.01,0.362,0.038,0.538,0.087
			c0.175,0.048,0.341,0.123,0.496,0.224c0.156,0.102,0.293,0.241,0.41,0.423c0.118,0.182,0.211,0.41,0.28,0.686
			c0.066,0.274,0.103,0.611,0.103,1.01v1.998c0,0.396-0.034,0.734-0.103,1.012c-0.069,0.276-0.162,0.505-0.28,0.686
			c-0.117,0.18-0.254,0.319-0.41,0.421c-0.155,0.102-0.321,0.175-0.496,0.224c-0.176,0.049-0.354,0.077-0.538,0.087
			c-0.185,0.009-0.359,0.015-0.532,0.015h-1.132V70.981z M84.932,77.133c0.196,0,0.358-0.023,0.485-0.072
			c0.128-0.048,0.229-0.135,0.304-0.255c0.074-0.123,0.125-0.289,0.153-0.5c0.025-0.212,0.042-0.479,0.042-0.8V73.37
			c0-0.322-0.017-0.589-0.042-0.801c-0.028-0.211-0.079-0.377-0.153-0.499c-0.075-0.122-0.176-0.208-0.304-0.256
			c-0.127-0.048-0.289-0.071-0.485-0.071h-0.277v5.39H84.932z"/>
		<path d="M90.723,76.468c0-0.146,0.009-0.283,0.027-0.408c0.018-0.125,0.045-0.261,0.082-0.404h0.845v0.334
			c0,0.185,0.013,0.349,0.036,0.49c0.021,0.144,0.062,0.263,0.118,0.359c0.055,0.099,0.127,0.172,0.219,0.223
			c0.091,0.049,0.202,0.073,0.334,0.073c0.208,0,0.366-0.054,0.476-0.162c0.11-0.108,0.164-0.269,0.164-0.479
			c0-0.106-0.008-0.206-0.021-0.296c-0.017-0.091-0.042-0.18-0.08-0.269c-0.037-0.089-0.089-0.183-0.153-0.28
			c-0.062-0.099-0.146-0.208-0.248-0.327l-1.136-1.294c-0.202-0.246-0.357-0.495-0.467-0.746c-0.11-0.251-0.164-0.52-0.164-0.805
			c0-0.229,0.037-0.438,0.109-0.628c0.074-0.189,0.184-0.354,0.321-0.494c0.143-0.139,0.313-0.246,0.521-0.321
			c0.208-0.076,0.438-0.115,0.699-0.115c0.316,0,0.581,0.043,0.795,0.129c0.211,0.086,0.38,0.199,0.507,0.338
			c0.126,0.141,0.215,0.297,0.267,0.47s0.078,0.348,0.078,0.521c0,0.146-0.012,0.284-0.036,0.409
			c-0.021,0.125-0.051,0.262-0.082,0.413h-0.841v-0.326c0-0.365-0.055-0.646-0.164-0.84c-0.109-0.194-0.288-0.292-0.534-0.292
			c-0.205,0-0.355,0.054-0.459,0.162c-0.101,0.108-0.149,0.255-0.149,0.438c0,0.098,0.008,0.185,0.021,0.263
			c0.017,0.078,0.038,0.148,0.067,0.215c0.027,0.065,0.063,0.13,0.105,0.19c0.042,0.062,0.089,0.126,0.145,0.193l1.267,1.466
			c0.229,0.288,0.406,0.562,0.529,0.828c0.124,0.265,0.186,0.544,0.186,0.84c0,0.244-0.04,0.464-0.12,0.661
			c-0.079,0.195-0.192,0.361-0.343,0.499c-0.147,0.137-0.328,0.242-0.538,0.315c-0.211,0.073-0.445,0.11-0.711,0.11
			c-0.325,0-0.596-0.042-0.81-0.125c-0.215-0.083-0.388-0.192-0.516-0.33c-0.128-0.137-0.218-0.293-0.27-0.468
			C90.749,76.829,90.723,76.65,90.723,76.468z"/>
	</g>
	<text transform="matrix(0.7627 0 0 1 12.2708 50.5139)" display="inline" font-family="'Cantarell-Regular'" font-size="6.6648">EST.</text>
	<text transform="matrix(0.7627 0 0 1 73.5159 50.5139)" display="inline" font-family="'Cantarell-Regular'" font-size="6.6648">1981</text>
</g>
<g display="none">
	<path display="inline" fill="#231F20" d="M41.15,24.59c-0.006,0.518,0.045,0.877,0.144,1.08c0.166,0.364,0.521,0.64,1.055,0.812
		c0.14-0.027,0.324-0.04,0.553-0.042c1.022-0.045,1.593-0.255,1.73-0.626c0.109-2.693,0.146-6.762,0.12-12.235
		c-0.038-5.462,0-9.536,0.106-12.227c-0.301-0.367-0.692-0.618-1.181-0.744c-0.393-0.062-0.78-0.126-1.173-0.188
		c-0.271,0.012-0.508,0.116-0.698,0.33c-0.195,0.209-0.367,0.434-0.521,0.667c0.071,2.477,0.016,6.143-0.159,11.001
		c-0.172,4.854-0.216,8.521-0.12,10.999C41.104,23.692,41.15,24.082,41.15,24.59 M59.045,25.95c3.759,0.572,7.218,0.772,10.37,0.622
		c0.393-0.227,0.605-0.568,0.649-1.029c0.024-0.228-0.049-0.769-0.204-1.622c-0.72-0.597-1.618-0.949-2.71-1.042
		c-0.367-0.039-0.943-0.049-1.728-0.039c-0.786,0.015-1.381,0-1.806-0.034c-0.411-0.04-0.802-0.111-1.166-0.213l-0.555-0.501
		c0.224-3.493,0.444-6.973,0.661-10.438c0.253-4.066,0.372-7.59,0.367-10.567c-0.429-0.69-0.91-1.059-1.467-1.11
		c-0.089-0.007-0.174-0.004-0.273,0.014c-0.108,0.153-0.444,0.251-1.031,0.288c-0.441,0.033-0.663,0.245-0.677,0.643
		c-0.065,2.987-0.225,6.631-0.492,10.9c-0.231,3.631-0.477,7.26-0.734,10.881l0.058,1.69C58.343,25.038,58.589,25.558,59.045,25.95
		 M21.427,28.335c0.224-0.042,0.583-0.078,1.066-0.12c0.491-0.034,0.832-0.072,1.035-0.111c0.931-0.163,1.435-0.592,1.495-1.29
		c-0.135-3.938-0.279-7.886-0.436-11.804c-0.179-4.718-0.466-8.695-0.875-11.915c-0.728-0.527-1.479-0.725-2.257-0.585
		c-0.618,0.108-0.932,0.443-0.945,1.015c-0.062,1.775-0.039,4.515,0.091,8.218c0.127,3.707,0.155,6.492,0.083,8.366
		c-0.213,0.135-0.402,0.062-0.577-0.199c-0.178-0.267-0.293-0.411-0.347-0.451c-2.718-6.2-4.79-10.98-6.205-14.353
		c-0.52-0.287-0.908-0.483-1.166-0.605c-0.706,0.13-1.423,0.255-2.157,0.382C9.476,5.106,9.119,5.607,9.156,6.376
		c0.229,6.729,0.384,11.786,0.463,15.157c-0.079,0.363-0.15,0.553-0.221,0.568c-0.091,0.011-0.193-0.025-0.306-0.124
		C6.28,15.495,4.48,10.768,3.694,7.8C3.573,7.513,3.32,7.265,2.931,7.05C2.72,6.948,2.393,6.81,1.934,6.631
		C0.843,6.82,0.197,7.158,0,7.642c0.881,2.993,2.187,6.764,3.908,11.321c1.472,3.805,2.934,7.619,4.384,11.448
		c0.242,0.312,0.62,0.512,1.136,0.609c0.28-0.123,0.852-0.219,1.703-0.307c0.859-0.079,1.451-0.184,1.783-0.305
		c0.567-0.244,0.861-0.673,0.869-1.291c0.048-0.762,0.007-2.196-0.128-4.313c-0.092-1.815-0.067-3.248,0.052-4.282
		c-0.185-0.645-0.271-1.532-0.263-2.669c0-1.218-0.059-2.103-0.187-2.646c-0.066-0.382,0.073-0.604,0.413-0.669
		c0.184-0.039,0.356,0.09,0.528,0.363c2.44,5.776,4.286,10.104,5.534,12.98c0.38,0.426,0.758,0.658,1.14,0.692
		C21.041,28.449,21.225,28.371,21.427,28.335 M92.637,26.886c-0.365-0.076-0.936-0.167-1.711-0.251
		c-0.776-0.087-1.373-0.181-1.783-0.267c-0.403-0.096-0.786-0.209-1.135-0.364l-0.485-0.568c0.67-3.431,1.337-6.854,1.995-10.266
		c0.766-4.003,1.338-7.479,1.703-10.436c-0.332-0.736-0.767-1.169-1.301-1.283c-0.094-0.019-0.181-0.03-0.275-0.026
		c-0.127,0.138-0.482,0.193-1.062,0.156c-0.44-0.022-0.694,0.158-0.752,0.542c-0.446,2.963-1.069,6.55-1.88,10.754
		c-0.693,3.571-1.398,7.139-2.116,10.709l-0.155,1.666c-0.053,0.65,0.129,1.203,0.524,1.645c3.662,1.048,7.06,1.695,10.212,1.938
		c0.413-0.162,0.668-0.477,0.768-0.929c0.057-0.232,0.057-0.771,0.014-1.639C94.557,27.587,93.703,27.121,92.637,26.886
		 M97.526,1.865c-0.86,0-1.562,0.699-1.562,1.561s0.7,1.561,1.562,1.561c0.86,0,1.561-0.7,1.561-1.561S98.386,1.865,97.526,1.865
		 M97.526,4.903c-0.814,0-1.479-0.662-1.479-1.479c0-0.814,0.663-1.479,1.479-1.479c0.814,0,1.478,0.663,1.478,1.479
		C99.002,4.24,98.34,4.903,97.526,4.903 M97.776,3.466V3.459c0.189-0.064,0.338-0.222,0.338-0.458c0-0.137-0.051-0.26-0.142-0.339
		c-0.111-0.102-0.271-0.146-0.517-0.146c-0.159,0-0.326,0.013-0.444,0.037v1.764h0.231V3.543h0.218
		c0.21,0.008,0.305,0.102,0.357,0.348c0.052,0.224,0.091,0.376,0.119,0.427h0.238c-0.037-0.067-0.079-0.24-0.138-0.49
		C97.995,3.641,97.913,3.514,97.776,3.466 M97.479,3.368h-0.235V2.715c0.036-0.01,0.116-0.021,0.229-0.021
		c0.244,0.004,0.411,0.104,0.411,0.334C97.882,3.233,97.725,3.368,97.479,3.368"/>
</g>
<path display="none" d="M32.134,65.693h-1.39c0,0-0.897-0.448-0.942-1.12c-0.045-0.674,0-3.096,0-3.096s0.269-0.402,0.403-0.852
	c0.135-0.448,0.403-0.718-0.18-0.897s-1.522-1.368-1.568-1.458c-0.336-0.649,0.204-4.31,0.111-5.065
	c-0.417-3.458,0.032-9.939,0.604-11.369c0.179-0.448,1.839-2.646,3.632-2.646c1.794,0,11.571,1.348,16.683,1.348
	s6.353-0.494,7.056-0.83s2.743-1.861,2.811-1.906c0.068-0.045,4.26-0.112,4.553-0.269c0.29-0.157,1.367-1.256,2.13-1.233
	s0.919,0.359,1.232,0.919c0.313,0.561,1.636,1.637,1.636,1.637s0.314,0.717,0.584,0.986s2.354,2.107,2.488,2.22s0.358,1.1,0,1.547
	c-0.357,0.448-1.144,1.055-2.019,1.1c-0.873,0.045-2.421,0.471-2.533,0.694c-0.111,0.225-0.986,0.067-1.278,0.271
	c-0.291,0.201-3.115,3.431-3.43,4.305s-1.031,2.938-1.413,3.498c-0.381,0.561-2.175,2.197-2.533,3.363
	c-0.357,1.166-0.852,2.354-0.738,3.229c0.11,0.874-0.046,1.885,0.135,2.443c0.178,0.562,0.873,1.503,1.008,1.749
	c0.135,0.247-0.045,0.404-0.045,0.404s-1.614,0.089-1.838-0.022c-0.226-0.112-0.605-1.076-0.74-1.076s-0.65,0.156-0.83-0.066
	c-0.179-0.226-0.156-2.758-0.111-3.341c0.044-0.583-0.382-3.655-0.853-4.439c-0.471-0.785-1.21-1.234-2.13-1.211
	c-0.919,0.021-4.911,0.045-5.874,0.561c-0.965,0.516-1.57,1.21-1.66,1.301c-0.089,0.089-0.426,0.156-0.538,0.022
	c-0.112-0.135-1.727-1.301-2.557-1.771c-0.829-0.472-3.206-1.593-3.744-1.57c-0.538,0.021-0.538-0.157-0.672,0.112
	c-0.135,0.269-0.381,0.941-0.27,1.502c0.112,0.56,0.336,2.377,0.314,2.959c-0.022,0.583-0.09,0.853-0.336,0.985
	c-0.247,0.136-0.562-0.357-0.763-0.627s-0.403-0.583-0.604-0.358c-0.202,0.224-0.359,0.313-0.381,0.583
	c-0.022,0.269-0.181,5.402,0,5.627c0.179,0.225,0.717,1.144,0.985,1.346c0.27,0.201,0.136,0.135-0.179,0.18
	c-0.313,0.044-1.839,0.18-2.107-0.022c-0.27-0.201-0.695-0.829-0.853-1.211c-0.158-0.381-0.382-1.031-0.449-1.232
	c-0.066-0.202-0.313-0.135-0.313-0.135s-0.291,0.09-0.313,0.247c-0.021,0.157-0.044,2.241-0.044,2.241s0.225,0.067,0.225,0.18
	C32.493,65.536,32.134,65.693,32.134,65.693z"/>
<g display="none">
	<path display="inline" d="M10.448,79.444v1.126H7.528v-6.352h0.99v5.226H10.448z"/>
	<path display="inline" d="M17.259,79.444v1.126h-3.333v-6.352h3.222v1.126H14.91v1.364h1.833v1.135H14.91v1.601H17.259z"/>
	<path display="inline" d="M24.51,80.57h-1.058l-0.375-1.22H21.51l-0.363,1.22h-1.062l1.899-6.352h0.634L24.51,80.57z M22.77,78.224
		l-0.473-1.829c-0.143,0.524-0.314,1.236-0.474,1.829H22.77z"/>
	<path display="inline" d="M30.195,75.344h-1.334v5.226h-0.989v-5.226h-1.334v-1.126h3.658L30.195,75.344L30.195,75.344z"/>
	<path display="inline" d="M36.888,74.219v6.352h-0.984v-2.607h-1.69v2.607h-0.984v-6.352h0.984v2.608h1.69v-2.608H36.888z"/>
	<path display="inline" d="M43.783,79.444v1.126H40.45v-6.352h3.222v1.126h-2.238v1.364h1.833v1.135h-1.833v1.601H43.783z"/>
	<path display="inline" d="M49.83,78.554l0.989,2.016h-1.106l-0.843-1.728h-0.738v1.728h-0.99v-6.352h1.852
		c0.946,0.009,1.703,0.999,1.703,2.312C50.698,77.42,50.353,78.165,49.83,78.554z M48.133,77.717h0.854
		c0.399,0,0.727-0.5,0.727-1.186c0-0.688-0.326-1.188-0.727-1.188h-0.854V77.717z"/>
	<path display="inline" d="M62.97,76.836v3.733h-0.983v-0.551c-0.388,0.391-0.873,0.627-1.384,0.627
		c-1.31,0-2.367-1.404-2.367-3.252c0-1.838,1.059-3.243,2.367-3.243c0.688,0,1.341,0.382,1.82,1.117l-0.646,0.891
		c-0.216-0.509-0.714-0.882-1.175-0.882c-0.824,0-1.377,1.024-1.377,2.117s0.553,2.126,1.377,2.126c0.627,0,1.205-0.687,1.335-1.55
		h-1.069v-1.135L62.97,76.836L62.97,76.836z"/>
	<path display="inline" d="M70.862,77.394c0,1.848-1.058,3.252-2.366,3.252c-1.31,0-2.367-1.404-2.367-3.252
		c0-1.838,1.058-3.243,2.367-3.243C69.804,74.151,70.862,75.556,70.862,77.394z M67.111,77.394c0,1.075,0.572,2.126,1.385,2.126
		c0.823,0,1.384-1.033,1.384-2.126s-0.561-2.117-1.384-2.117C67.683,75.277,67.111,76.31,67.111,77.394z"/>
	<path display="inline" d="M78.569,77.394c0,1.848-1.058,3.252-2.366,3.252c-1.31,0-2.367-1.404-2.367-3.252
		c0-1.838,1.058-3.243,2.367-3.243C77.511,74.151,78.569,75.556,78.569,77.394z M74.818,77.394c0,1.075,0.572,2.126,1.385,2.126
		c0.823,0,1.384-1.033,1.384-2.126s-0.561-2.117-1.384-2.117C75.39,75.277,74.818,76.31,74.818,77.394z"/>
	<path display="inline" d="M83.68,80.57h-1.851v-6.352h1.851c1.248,0.009,2.251,1.432,2.251,3.176
		C85.931,79.147,84.928,80.561,83.68,80.57z M84.947,77.394c0-1.023-0.521-2.032-1.271-2.05h-0.861v4.1h0.861
		C84.43,79.435,84.947,78.419,84.947,77.394z"/>
	<path display="inline" d="M92.654,78.817c0,1.245-0.786,1.829-1.776,1.829c-0.812,0-1.334-0.466-1.826-1.193l0.688-0.939
		c0.165,0.474,0.677,1.008,1.138,1.008c0.332-0.009,0.787-0.127,0.787-0.703c0-0.559-0.461-0.787-0.843-0.947
		c-0.694-0.288-1.536-0.764-1.536-1.965c0-1.152,0.786-1.754,1.592-1.754c0.688,0,1.335,0.467,1.819,1.202l-0.663,0.915
		c-0.209-0.382-0.641-0.991-1.156-0.991c-0.295,0-0.608,0.179-0.608,0.636c0,0.517,0.461,0.729,0.812,0.881
		C91.818,77.098,92.654,77.59,92.654,78.817z"/>
</g>
<g display="none">
	<path display="inline" d="M12.928,53.413V48.81h2.058v0.486h-1.638v1.503h1.502v0.486h-1.502v1.642h1.638v0.486H12.928z"/>
	<path display="inline" d="M18.016,48.768c0.271,0,0.562,0.062,0.872,0.186l-0.136,0.502c-0.296-0.112-0.553-0.168-0.771-0.168
		c-0.244,0-0.45,0.066-0.619,0.203c-0.168,0.135-0.253,0.309-0.253,0.522c0,0.119,0.027,0.225,0.082,0.317
		c0.056,0.092,0.126,0.168,0.216,0.227c0.089,0.06,0.189,0.116,0.304,0.173c0.114,0.059,0.229,0.11,0.347,0.157
		s0.233,0.108,0.347,0.182c0.114,0.073,0.216,0.154,0.305,0.241s0.161,0.201,0.215,0.342c0.055,0.141,0.082,0.3,0.082,0.477
		c0,0.123-0.015,0.246-0.044,0.367c-0.029,0.122-0.079,0.243-0.148,0.362c-0.068,0.12-0.154,0.226-0.257,0.316
		s-0.23,0.164-0.387,0.22c-0.156,0.057-0.329,0.084-0.521,0.084c-0.19,0-0.366-0.025-0.526-0.078
		c-0.161-0.052-0.341-0.129-0.54-0.232l0.144-0.535c0.412,0.201,0.737,0.301,0.977,0.301c0.25,0,0.454-0.065,0.61-0.197
		c0.157-0.132,0.236-0.308,0.236-0.527c0-0.146-0.035-0.273-0.105-0.38c-0.069-0.107-0.159-0.193-0.271-0.26
		c-0.111-0.064-0.234-0.127-0.369-0.185c-0.135-0.057-0.27-0.119-0.404-0.185c-0.134-0.066-0.257-0.143-0.367-0.229
		c-0.111-0.086-0.202-0.203-0.271-0.35c-0.069-0.147-0.104-0.319-0.104-0.519c0-0.177,0.032-0.347,0.098-0.509
		c0.064-0.162,0.155-0.304,0.271-0.426c0.116-0.122,0.26-0.219,0.433-0.292S17.814,48.768,18.016,48.768z"/>
	<path display="inline" d="M20.167,48.81h2.767v0.486H21.76v4.117h-0.42v-4.117h-1.173V48.81z"/>
	<path display="inline" d="M23.998,52.733h0.519v0.681h-0.519V52.733z"/>
</g>
<g display="none">
	<path display="inline" d="M74.638,48.81h0.483v4.12h0.814v0.482h-2.045V52.93h0.825v-3.589l-0.771,0.398l-0.157-0.477L74.638,48.81
		z"/>
	<path display="inline" d="M78.634,48.745c0.07,0,0.14,0.007,0.207,0.021c0.067,0.015,0.141,0.04,0.218,0.078
		s0.149,0.087,0.216,0.149c0.067,0.062,0.133,0.143,0.195,0.244c0.063,0.103,0.117,0.219,0.162,0.352
		c0.044,0.133,0.079,0.295,0.104,0.486c0.026,0.19,0.04,0.401,0.04,0.633c0,0.419-0.033,0.791-0.102,1.114
		c-0.068,0.322-0.156,0.587-0.268,0.79s-0.247,0.37-0.406,0.5c-0.16,0.132-0.325,0.223-0.494,0.272
		c-0.17,0.05-0.354,0.076-0.551,0.076c-0.104,0-0.205-0.006-0.308-0.02l0.029-0.479c0.074,0.011,0.163,0.016,0.267,0.016
		c0.13,0,0.247-0.012,0.356-0.036c0.108-0.022,0.203-0.055,0.285-0.094c0.081-0.039,0.155-0.09,0.223-0.151
		c0.066-0.062,0.123-0.125,0.169-0.188c0.046-0.062,0.087-0.138,0.123-0.227c0.036-0.09,0.065-0.168,0.087-0.24
		c0.022-0.072,0.04-0.156,0.058-0.256c0.017-0.1,0.027-0.184,0.036-0.25c0.007-0.067,0.015-0.149,0.022-0.246
		c-0.103,0.143-0.224,0.249-0.363,0.318c-0.14,0.07-0.282,0.105-0.43,0.105c-0.312,0-0.575-0.133-0.786-0.4
		c-0.211-0.267-0.314-0.603-0.314-1.009c0-0.428,0.116-0.795,0.352-1.102C77.997,48.899,78.288,48.745,78.634,48.745z
		 M78.579,49.199c-0.199,0-0.376,0.107-0.531,0.323c-0.154,0.217-0.232,0.46-0.232,0.732c0,0.278,0.079,0.516,0.236,0.712
		s0.341,0.295,0.552,0.295c0.21,0,0.39-0.095,0.538-0.285c0.148-0.189,0.225-0.418,0.225-0.684c0-0.175-0.035-0.348-0.105-0.516
		s-0.166-0.307-0.289-0.416C78.849,49.253,78.718,49.199,78.579,49.199z"/>
	<path display="inline" d="M82.396,48.749c0.345,0,0.605,0.099,0.785,0.296s0.271,0.474,0.271,0.828
		c0,0.188-0.041,0.356-0.121,0.508c-0.081,0.151-0.206,0.307-0.376,0.466c0.234,0.139,0.41,0.315,0.523,0.53s0.17,0.452,0.17,0.711
		c0,0.175-0.026,0.344-0.081,0.508c-0.055,0.165-0.132,0.312-0.23,0.444c-0.1,0.132-0.229,0.237-0.387,0.316
		c-0.158,0.08-0.332,0.12-0.523,0.12c-0.228,0-0.438-0.056-0.626-0.168c-0.19-0.111-0.342-0.271-0.454-0.475
		c-0.111-0.204-0.168-0.434-0.168-0.686c0-0.261,0.064-0.51,0.193-0.747c0.128-0.235,0.298-0.42,0.509-0.552
		c-0.102-0.066-0.188-0.145-0.257-0.234c-0.071-0.09-0.123-0.183-0.156-0.277c-0.032-0.095-0.056-0.181-0.07-0.257
		c-0.014-0.077-0.021-0.152-0.021-0.226c0-0.311,0.093-0.572,0.276-0.787C81.838,48.856,82.085,48.749,82.396,48.749z
		 M82.338,51.061c-0.228,0.089-0.405,0.23-0.536,0.424c-0.13,0.194-0.194,0.399-0.194,0.616c0,0.242,0.077,0.451,0.231,0.626
		c0.155,0.176,0.355,0.265,0.604,0.265c0.23,0,0.417-0.084,0.56-0.251c0.142-0.167,0.212-0.372,0.212-0.614
		c0-0.123-0.017-0.237-0.052-0.342c-0.034-0.105-0.078-0.193-0.131-0.267c-0.054-0.073-0.119-0.139-0.2-0.199
		c-0.08-0.061-0.159-0.109-0.235-0.148C82.52,51.133,82.434,51.096,82.338,51.061z M82.396,49.212c-0.17,0-0.312,0.063-0.432,0.194
		c-0.117,0.129-0.177,0.28-0.177,0.452c0,0.067,0.01,0.132,0.027,0.193c0.021,0.062,0.041,0.114,0.067,0.159
		c0.025,0.044,0.062,0.088,0.108,0.131s0.089,0.078,0.125,0.104c0.035,0.026,0.084,0.056,0.145,0.087
		c0.06,0.03,0.105,0.053,0.137,0.065s0.076,0.031,0.135,0.055c0.089-0.07,0.157-0.131,0.21-0.18
		c0.051-0.048,0.103-0.104,0.154-0.168c0.054-0.062,0.091-0.129,0.113-0.197c0.023-0.067,0.035-0.141,0.035-0.219
		c0-0.211-0.062-0.377-0.188-0.497C82.732,49.272,82.578,49.212,82.396,49.212z"/>
	<path display="inline" d="M86.094,48.81h0.483v4.12h0.814v0.482h-2.045V52.93h0.825v-3.589l-0.771,0.398l-0.157-0.477L86.094,48.81
		z"/>
</g>
<g>
	<path fill="#231F20" d="M41.179,24.636c-0.006,0.518,0.044,0.877,0.142,1.081c0.166,0.364,0.521,0.64,1.057,0.814
		c0.14-0.028,0.324-0.04,0.554-0.042c1.023-0.046,1.592-0.256,1.73-0.627c0.108-2.695,0.147-6.767,0.12-12.244
		c-0.038-5.467,0-9.542,0.106-12.234c-0.301-0.367-0.693-0.618-1.181-0.744c-0.395-0.062-0.781-0.126-1.174-0.188
		c-0.271,0.012-0.509,0.115-0.699,0.331c-0.195,0.209-0.368,0.434-0.521,0.667c0.072,2.479,0.017,6.146-0.159,11.008
		c-0.172,4.857-0.216,8.527-0.118,11.006C41.133,23.738,41.179,24.128,41.179,24.636 M59.087,25.998
		c3.762,0.572,7.224,0.772,10.377,0.622c0.394-0.227,0.607-0.568,0.651-1.029c0.024-0.229-0.05-0.769-0.204-1.624
		c-0.722-0.597-1.621-0.949-2.712-1.043c-0.369-0.039-0.945-0.049-1.729-0.039c-0.787,0.015-1.383,0-1.808-0.034
		c-0.411-0.04-0.803-0.11-1.166-0.213l-0.555-0.501c0.224-3.495,0.443-6.978,0.661-10.446c0.253-4.069,0.372-7.595,0.367-10.575
		c-0.43-0.69-0.911-1.06-1.468-1.111c-0.089-0.007-0.174-0.005-0.273,0.013c-0.108,0.154-0.445,0.251-1.032,0.289
		c-0.441,0.033-0.663,0.245-0.678,0.644c-0.064,2.988-0.224,6.636-0.492,10.908c-0.231,3.633-0.477,7.265-0.734,10.889l0.057,1.691
		C58.385,25.085,58.631,25.606,59.087,25.998 M21.443,28.384c0.226-0.042,0.583-0.079,1.066-0.121
		c0.493-0.034,0.833-0.072,1.036-0.111c0.932-0.162,1.435-0.592,1.496-1.291c-0.135-3.94-0.28-7.892-0.438-11.812
		c-0.179-4.722-0.466-8.701-0.876-11.923C23.001,2.599,22.249,2.4,21.47,2.541c-0.618,0.107-0.932,0.442-0.946,1.016
		c-0.062,1.775-0.039,4.518,0.092,8.222c0.127,3.711,0.154,6.499,0.083,8.373c-0.215,0.135-0.403,0.063-0.577-0.198
		c-0.179-0.268-0.293-0.411-0.349-0.452c-2.72-6.205-4.792-10.988-6.209-14.362c-0.52-0.288-0.907-0.483-1.167-0.606
		c-0.707,0.13-1.424,0.255-2.159,0.382C9.483,5.139,9.126,5.64,9.163,6.41c0.229,6.734,0.383,11.794,0.462,15.167
		c-0.079,0.363-0.151,0.553-0.221,0.569c-0.091,0.012-0.193-0.025-0.305-0.124C6.284,15.534,4.483,10.805,3.697,7.834
		C3.576,7.548,3.323,7.3,2.934,7.084c-0.212-0.103-0.539-0.24-0.998-0.419C0.844,6.854,0.198,7.192,0.001,7.676
		c0.882,2.995,2.188,6.768,3.911,11.33c1.473,3.808,2.936,7.624,4.387,11.456c0.243,0.312,0.621,0.512,1.136,0.611
		c0.28-0.124,0.853-0.22,1.705-0.308c0.859-0.079,1.452-0.185,1.784-0.306c0.568-0.244,0.863-0.672,0.87-1.292
		c0.048-0.761,0.007-2.198-0.127-4.316c-0.092-1.816-0.069-3.25,0.051-4.285c-0.184-0.646-0.271-1.533-0.263-2.671
		c0-1.219-0.06-2.104-0.188-2.647c-0.065-0.382,0.073-0.605,0.413-0.67c0.185-0.038,0.358,0.091,0.529,0.364
		c2.442,5.78,4.29,10.109,5.539,12.989c0.38,0.426,0.757,0.659,1.14,0.692C21.056,28.498,21.24,28.421,21.443,28.384 M92.702,26.934
		c-0.365-0.076-0.937-0.167-1.712-0.252c-0.776-0.087-1.374-0.181-1.784-0.267c-0.404-0.096-0.787-0.21-1.137-0.364l-0.484-0.569
		c0.67-3.433,1.337-6.858,1.996-10.271c0.766-4.006,1.34-7.483,1.704-10.442c-0.332-0.738-0.769-1.17-1.303-1.285
		c-0.094-0.018-0.181-0.029-0.274-0.025c-0.127,0.138-0.483,0.192-1.063,0.155C88.203,3.59,87.95,3.77,87.892,4.156
		c-0.446,2.965-1.068,6.555-1.881,10.762c-0.695,3.574-1.399,7.145-2.118,10.717l-0.156,1.667c-0.052,0.651,0.131,1.204,0.524,1.646
		c3.667,1.049,7.066,1.696,10.22,1.938c0.414-0.162,0.669-0.477,0.77-0.929c0.056-0.232,0.056-0.771,0.013-1.64
		C94.624,27.635,93.77,27.169,92.702,26.934 M97.595,1.895c-0.862,0-1.562,0.7-1.562,1.562c0,0.86,0.7,1.562,1.562,1.562
		c0.86,0,1.562-0.701,1.562-1.562C99.156,2.595,98.455,1.895,97.595,1.895 M97.595,4.936c-0.815,0-1.479-0.664-1.479-1.479
		c0-0.814,0.663-1.479,1.479-1.479c0.814,0,1.479,0.664,1.479,1.479C99.073,4.272,98.409,4.936,97.595,4.936 M97.845,3.497V3.49
		c0.189-0.064,0.338-0.222,0.338-0.458c0-0.138-0.051-0.261-0.142-0.34c-0.111-0.101-0.271-0.146-0.518-0.146
		c-0.16,0-0.325,0.013-0.443,0.037V4.35h0.23V3.574h0.218c0.211,0.008,0.306,0.102,0.358,0.348c0.051,0.223,0.09,0.377,0.119,0.427
		h0.239c-0.038-0.067-0.08-0.241-0.139-0.491C98.066,3.673,97.984,3.546,97.845,3.497 M97.548,3.399h-0.236V2.746
		c0.037-0.011,0.117-0.021,0.229-0.021c0.244,0.002,0.411,0.104,0.411,0.334C97.951,3.264,97.795,3.399,97.548,3.399"/>
</g>
<path d="M32.157,63.518h-1.393c0,0-0.896-0.449-0.941-1.122c-0.046-0.673,0-3.096,0-3.096s0.269-0.404,0.402-0.853
	c0.135-0.449,0.404-0.719-0.179-0.897c-0.583-0.18-1.525-1.37-1.57-1.459c-0.337-0.65,0.203-4.313,0.112-5.07
	c-0.418-3.46,0.033-9.945,0.604-11.377c0.18-0.449,1.841-2.646,3.635-2.646c1.795,0,11.579,1.347,16.694,1.347
	s6.356-0.494,7.061-0.831c0.704-0.336,2.746-1.862,2.812-1.907s4.264-0.111,4.555-0.269c0.292-0.157,1.368-1.256,2.132-1.234
	c0.763,0.022,0.92,0.359,1.233,0.92c0.314,0.562,1.639,1.64,1.639,1.64s0.313,0.717,0.583,0.985c0.27,0.27,2.355,2.109,2.489,2.222
	c0.136,0.111,0.359,1.1,0,1.549c-0.357,0.448-1.144,1.054-2.02,1.1c-0.874,0.044-2.422,0.472-2.534,0.695s-0.988,0.065-1.279,0.269
	c-0.292,0.202-3.118,3.434-3.434,4.309c-0.313,0.875-1.031,2.938-1.413,3.5c-0.381,0.561-2.176,2.199-2.535,3.366
	c-0.358,1.166-0.853,2.355-0.74,3.23c0.111,0.875-0.045,1.885,0.136,2.445c0.179,0.562,0.875,1.503,1.009,1.75
	c0.135,0.247-0.044,0.403-0.044,0.403s-1.616,0.091-1.841-0.021s-0.605-1.077-0.74-1.077s-0.65,0.157-0.83-0.067
	c-0.179-0.224-0.156-2.759-0.112-3.343c0.045-0.583-0.381-3.657-0.853-4.441c-0.471-0.786-1.211-1.235-2.132-1.212
	c-0.919,0.021-4.913,0.045-5.878,0.561c-0.966,0.516-1.571,1.211-1.66,1.301c-0.09,0.09-0.427,0.157-0.539,0.022
	c-0.113-0.134-1.729-1.301-2.559-1.772c-0.829-0.471-3.208-1.593-3.746-1.57c-0.539,0.021-0.539-0.157-0.674,0.111
	c-0.134,0.27-0.381,0.942-0.269,1.503c0.112,0.562,0.336,2.379,0.313,2.962s-0.09,0.854-0.337,0.987
	c-0.247,0.135-0.561-0.359-0.763-0.628c-0.202-0.271-0.403-0.583-0.605-0.359c-0.201,0.225-0.358,0.314-0.382,0.583
	c-0.021,0.27-0.18,5.407,0,5.633c0.181,0.225,0.719,1.145,0.987,1.346c0.271,0.202,0.135,0.136-0.179,0.18
	c-0.314,0.045-1.84,0.18-2.109-0.021s-0.696-0.83-0.853-1.211c-0.157-0.383-0.381-1.033-0.449-1.234
	c-0.067-0.202-0.314-0.135-0.314-0.135s-0.292,0.09-0.313,0.247c-0.022,0.156-0.044,2.242-0.044,2.242s0.224,0.068,0.224,0.181
	C32.516,63.361,32.157,63.518,32.157,63.518z"/>
<g>
	<path d="M12.528,75.942v1.157H9.679v-6.522h0.965v5.365H12.528z"/>
	<path d="M19.166,75.942v1.157h-3.25v-6.522h3.142v1.156h-2.183v1.4h1.787v1.165h-1.787v1.644H19.166z"/>
	<path d="M26.236,77.099h-1.03l-0.366-1.252H23.31l-0.354,1.252h-1.038l1.853-6.522h0.618L26.236,77.099z M24.539,74.69
		l-0.462-1.879c-0.139,0.539-0.307,1.271-0.462,1.879H24.539z"/>
	<path d="M31.778,71.733h-1.301v5.366h-0.965v-5.366H28.21v-1.156h3.567V71.733z"/>
	<path d="M38.302,70.576v6.522h-0.959V74.42h-1.649v2.679h-0.959v-6.522h0.959v2.679h1.649v-2.679H38.302z"/>
	<path d="M45.024,75.942v1.157h-3.25v-6.522h3.143v1.156h-2.184v1.4h1.787v1.165h-1.787v1.644H45.024z"/>
	<path d="M50.919,75.029l0.965,2.07h-1.079l-0.822-1.773h-0.719v1.773h-0.966v-6.522h1.805c0.923,0.009,1.661,1.025,1.661,2.375
		C51.764,73.865,51.429,74.63,50.919,75.029z M49.264,74.169h0.833c0.389,0,0.708-0.514,0.708-1.218
		c0-0.705-0.318-1.219-0.708-1.219h-0.833V74.169z"/>
	<path d="M63.728,73.263v3.836h-0.96v-0.564c-0.378,0.399-0.852,0.644-1.35,0.644c-1.277,0-2.31-1.443-2.31-3.34
		c0-1.887,1.031-3.331,2.31-3.331c0.672,0,1.308,0.392,1.774,1.148l-0.63,0.912c-0.21-0.521-0.694-0.903-1.146-0.903
		c-0.804,0-1.343,1.052-1.343,2.174s0.539,2.184,1.343,2.184c0.611,0,1.176-0.705,1.302-1.592h-1.044v-1.166L63.728,73.263
		L63.728,73.263z"/>
	<path d="M71.421,73.838c0,1.896-1.031,3.34-2.31,3.34c-1.277,0-2.309-1.443-2.309-3.34c0-1.887,1.031-3.331,2.309-3.331
		C70.39,70.507,71.421,71.951,71.421,73.838z M67.763,73.838c0,1.104,0.558,2.184,1.35,2.184c0.805,0,1.351-1.062,1.351-2.184
		s-0.546-2.174-1.351-2.174C68.321,71.664,67.763,72.724,67.763,73.838z"/>
	<path d="M78.935,73.838c0,1.896-1.031,3.34-2.309,3.34c-1.278,0-2.31-1.443-2.31-3.34c0-1.887,1.031-3.331,2.31-3.331
		C77.904,70.507,78.935,71.951,78.935,73.838z M75.277,73.838c0,1.104,0.559,2.184,1.351,2.184c0.804,0,1.35-1.062,1.35-2.184
		s-0.546-2.174-1.35-2.174C75.834,71.664,75.277,72.724,75.277,73.838z"/>
	<path d="M83.918,77.099h-1.807v-6.522h1.807c1.217,0.009,2.193,1.47,2.193,3.262C86.113,75.638,85.135,77.091,83.918,77.099z
		 M85.154,73.838c0-1.053-0.51-2.087-1.24-2.104h-0.84v4.209h0.84C84.65,75.934,85.154,74.89,85.154,73.838z"/>
	<path d="M92.667,75.299c0,1.279-0.769,1.879-1.732,1.879c-0.792,0-1.302-0.479-1.781-1.227l0.673-0.966
		c0.16,0.487,0.658,1.035,1.108,1.035c0.323-0.009,0.769-0.131,0.769-0.723c0-0.573-0.45-0.809-0.822-0.974
		c-0.677-0.297-1.499-0.783-1.499-2.019c0-1.184,0.768-1.801,1.554-1.801c0.671,0,1.301,0.479,1.774,1.235l-0.647,0.938
		c-0.204-0.392-0.623-1.018-1.127-1.018c-0.288,0-0.594,0.183-0.594,0.651c0,0.53,0.449,0.748,0.791,0.904
		C91.852,73.533,92.667,74.038,92.667,75.299z"/>
</g>
<g>
	<path d="M12.938,51.229v-4.604h2.061v0.485h-1.64v1.505h1.503V49.1h-1.503v1.644h1.64v0.485H12.938z"/>
	<path d="M18.031,46.582c0.271,0,0.562,0.062,0.873,0.185l-0.136,0.502c-0.296-0.111-0.554-0.168-0.771-0.168
		c-0.244,0-0.451,0.067-0.62,0.202c-0.169,0.136-0.253,0.31-0.253,0.523c0,0.118,0.026,0.225,0.082,0.317
		c0.054,0.093,0.126,0.168,0.215,0.228c0.089,0.059,0.189,0.115,0.304,0.173s0.229,0.109,0.347,0.157
		c0.118,0.048,0.234,0.107,0.348,0.182c0.114,0.074,0.215,0.154,0.304,0.242c0.089,0.087,0.161,0.201,0.215,0.342
		c0.055,0.141,0.082,0.299,0.082,0.477c0,0.123-0.015,0.245-0.044,0.367c-0.03,0.122-0.079,0.243-0.147,0.363
		c-0.069,0.12-0.155,0.226-0.258,0.316c-0.102,0.091-0.23,0.163-0.387,0.22s-0.329,0.085-0.521,0.085s-0.367-0.026-0.528-0.078
		s-0.341-0.13-0.54-0.233l0.144-0.534c0.412,0.2,0.737,0.302,0.978,0.302c0.25,0,0.454-0.065,0.612-0.197
		c0.156-0.132,0.235-0.309,0.235-0.528c0-0.146-0.035-0.273-0.104-0.381c-0.07-0.106-0.161-0.192-0.272-0.26
		c-0.11-0.065-0.233-0.127-0.37-0.185c-0.136-0.059-0.27-0.119-0.403-0.186c-0.135-0.065-0.258-0.143-0.368-0.229
		c-0.111-0.087-0.202-0.203-0.272-0.352c-0.069-0.146-0.104-0.318-0.104-0.519c0-0.177,0.033-0.348,0.098-0.509
		c0.065-0.162,0.155-0.305,0.271-0.427c0.115-0.122,0.26-0.22,0.433-0.292C17.64,46.618,17.827,46.582,18.031,46.582z"/>
	<path d="M20.183,46.624h2.77v0.485h-1.175v4.119h-0.42V47.11h-1.174L20.183,46.624L20.183,46.624z"/>
	<path d="M24.016,50.549h0.521v0.681h-0.521V50.549z"/>
</g>
<g>
	<path d="M74.691,46.624h0.484v4.123h0.815v0.481h-2.048v-0.481h0.826v-3.592l-0.771,0.398l-0.158-0.477L74.691,46.624z"/>
	<path d="M78.69,46.559c0.07,0,0.141,0.007,0.208,0.021s0.141,0.04,0.218,0.078c0.077,0.037,0.148,0.087,0.217,0.148
		c0.065,0.062,0.132,0.144,0.194,0.244c0.063,0.101,0.117,0.219,0.162,0.352c0.044,0.134,0.079,0.296,0.105,0.486
		c0.025,0.191,0.04,0.402,0.04,0.634c0,0.419-0.034,0.791-0.103,1.115c-0.067,0.324-0.156,0.588-0.268,0.79
		c-0.111,0.203-0.247,0.37-0.407,0.501s-0.324,0.222-0.494,0.272c-0.17,0.05-0.354,0.075-0.552,0.075
		c-0.102,0-0.204-0.007-0.307-0.02l0.029-0.479c0.074,0.012,0.163,0.018,0.268,0.018c0.129,0,0.247-0.013,0.355-0.036
		s0.204-0.055,0.285-0.094c0.082-0.039,0.156-0.09,0.224-0.152c0.066-0.062,0.122-0.126,0.169-0.188
		c0.047-0.062,0.088-0.139,0.124-0.228c0.035-0.089,0.064-0.169,0.086-0.24c0.021-0.07,0.041-0.155,0.058-0.256
		c0.017-0.1,0.028-0.183,0.035-0.249c0.008-0.066,0.016-0.148,0.022-0.247c-0.102,0.144-0.223,0.249-0.362,0.319
		c-0.141,0.07-0.283,0.104-0.431,0.104c-0.312,0-0.574-0.133-0.785-0.399c-0.212-0.268-0.316-0.604-0.316-1.01
		c0-0.429,0.117-0.795,0.353-1.103C78.053,46.713,78.344,46.559,78.69,46.559z M78.635,47.012c-0.199,0-0.376,0.108-0.531,0.324
		c-0.154,0.216-0.231,0.46-0.231,0.731c0,0.279,0.079,0.518,0.235,0.714c0.157,0.196,0.343,0.295,0.554,0.295
		c0.209,0,0.388-0.096,0.537-0.285c0.148-0.189,0.224-0.418,0.224-0.685c0-0.175-0.035-0.347-0.104-0.516
		c-0.069-0.168-0.167-0.307-0.29-0.416C78.905,47.067,78.774,47.012,78.635,47.012z"/>
	<path d="M82.454,46.562c0.344,0,0.605,0.1,0.786,0.297c0.18,0.197,0.27,0.475,0.27,0.828c0,0.188-0.041,0.357-0.121,0.509
		c-0.081,0.151-0.206,0.308-0.376,0.468c0.235,0.138,0.41,0.313,0.523,0.528c0.113,0.216,0.171,0.452,0.171,0.712
		c0,0.176-0.027,0.346-0.081,0.51c-0.056,0.164-0.132,0.312-0.231,0.443c-0.099,0.133-0.229,0.237-0.387,0.317
		s-0.333,0.12-0.524,0.12c-0.228,0-0.437-0.058-0.627-0.169c-0.189-0.112-0.341-0.271-0.453-0.476
		c-0.111-0.204-0.168-0.433-0.168-0.686c0-0.262,0.064-0.511,0.192-0.747c0.129-0.236,0.299-0.421,0.51-0.553
		c-0.101-0.067-0.187-0.146-0.258-0.235c-0.07-0.089-0.122-0.182-0.155-0.276c-0.032-0.096-0.057-0.182-0.069-0.258
		c-0.016-0.077-0.021-0.151-0.021-0.226c0-0.312,0.093-0.573,0.278-0.787C81.897,46.669,82.144,46.562,82.454,46.562z
		 M82.397,48.877c-0.227,0.088-0.405,0.229-0.536,0.424c-0.13,0.195-0.194,0.4-0.194,0.616c0,0.242,0.077,0.451,0.231,0.627
		c0.155,0.177,0.356,0.265,0.605,0.265c0.23,0,0.417-0.084,0.559-0.251c0.144-0.168,0.213-0.373,0.213-0.614
		c0-0.124-0.018-0.236-0.052-0.343c-0.034-0.104-0.078-0.192-0.131-0.266s-0.12-0.14-0.2-0.199c-0.081-0.061-0.16-0.11-0.235-0.148
		C82.579,48.948,82.492,48.911,82.397,48.877z M82.454,47.026c-0.17,0-0.313,0.064-0.433,0.194c-0.118,0.129-0.177,0.28-0.177,0.453
		c0,0.067,0.01,0.132,0.028,0.193c0.018,0.061,0.041,0.113,0.065,0.157c0.026,0.045,0.062,0.089,0.109,0.133
		c0.047,0.043,0.089,0.077,0.125,0.104s0.084,0.055,0.145,0.086s0.105,0.054,0.138,0.066c0.031,0.012,0.076,0.03,0.134,0.055
		c0.089-0.071,0.159-0.131,0.21-0.18c0.051-0.05,0.104-0.104,0.156-0.168c0.053-0.064,0.09-0.13,0.112-0.198
		c0.023-0.067,0.034-0.141,0.034-0.219c0-0.212-0.062-0.377-0.188-0.497S82.637,47.026,82.454,47.026z"/>
	<path d="M86.155,46.624h0.484v4.123h0.815v0.481h-2.047v-0.481h0.825v-3.592l-0.771,0.398l-0.158-0.477L86.155,46.624z"/>
</g>
</svg>
