<?xml version="1.0" encoding="utf-8"?>
<!-- Generator: Adobe Illustrator 16.0.0, SVG Export Plug-In . SVG Version: 6.00 Build 0)  -->
<!DOCTYPE svg PUBLIC "-//W3C//DTD SVG 1.1//EN" "http://www.w3.org/Graphics/SVG/1.1/DTD/svg11.dtd">
<svg version="1.1" id="Layer_1" xmlns="http://www.w3.org/2000/svg" xmlns:xlink="http://www.w3.org/1999/xlink" x="0px" y="0px"
	 width="103.335px" height="69.31px" viewBox="0 0 103.335 69.31" enable-background="new 0 0 103.335 69.31" xml:space="preserve">
<path d="M8.934,69.31H5.656c0,0-2.115-1.058-2.221-2.643c-0.106-1.586,0-7.296,0-7.296s0.634-0.951,0.952-2.008
	s0.951-1.692-0.423-2.115c-1.374-0.423-3.592-3.226-3.7-3.437c-0.794-1.533,0.479-10.164,0.264-11.947
	c-0.984-8.153,0.077-23.434,1.425-26.806C2.375,12,6.288,6.819,10.517,6.819c4.229,0,27.282,3.175,39.336,3.175
	c12.053,0,14.978-1.164,16.634-1.958c1.657-0.792,6.468-4.387,6.627-4.493c0.158-0.106,10.044-0.265,10.731-0.634
	c0.688-0.371,3.226-2.961,5.023-2.908c1.797,0.053,2.167,0.846,2.907,2.168c0.74,1.321,3.859,3.859,3.859,3.859
	s0.741,1.691,1.375,2.325c0.634,0.634,5.549,4.97,5.867,5.234c0.317,0.264,0.846,2.591,0,3.648c-0.845,1.057-2.695,2.485-4.758,2.59
	c-2.06,0.106-5.709,1.11-5.973,1.639c-0.265,0.528-2.326,0.158-3.014,0.634c-0.687,0.476-7.348,8.089-8.089,10.151
	c-0.74,2.061-2.431,6.925-3.331,8.247c-0.898,1.321-5.127,5.181-5.974,7.93c-0.846,2.748-2.008,5.551-1.744,7.613
	c0.263,2.062-0.106,4.441,0.317,5.763c0.422,1.322,2.062,3.542,2.378,4.123c0.318,0.582-0.105,0.952-0.105,0.952
	s-3.807,0.211-4.335-0.053c-0.529-0.265-1.428-2.538-1.745-2.538s-1.533,0.37-1.957-0.158c-0.422-0.529-0.369-6.502-0.263-7.877
	c0.105-1.375-0.9-8.617-2.01-10.467c-1.11-1.852-2.854-2.909-5.022-2.855c-2.167,0.053-11.578,0.106-13.851,1.322
	c-2.273,1.215-3.702,2.854-3.913,3.066c-0.211,0.211-1.005,0.37-1.268,0.053c-0.265-0.317-4.072-3.066-6.028-4.177
	c-1.956-1.111-7.56-3.753-8.829-3.701c-1.269,0.053-1.269-0.37-1.586,0.264c-0.317,0.634-0.899,2.221-0.634,3.542
	c0.264,1.322,0.793,5.605,0.74,6.979c-0.053,1.375-0.212,2.009-0.794,2.326c-0.581,0.318-1.321-0.846-1.797-1.48
	c-0.475-0.635-0.951-1.374-1.427-0.846s-0.846,0.74-0.899,1.375c-0.053,0.635-0.423,12.742,0,13.27
	c0.423,0.529,1.691,2.696,2.326,3.171c0.634,0.477,0.317,0.319-0.423,0.423c-0.74,0.106-4.335,0.423-4.97-0.053
	c-0.634-0.475-1.639-1.956-2.009-2.854c-0.371-0.898-0.899-2.432-1.057-2.907c-0.159-0.477-0.741-0.318-0.741-0.318
	s-0.687,0.212-0.74,0.582c-0.053,0.371-0.105,5.287-0.105,5.287s0.528,0.16,0.528,0.423C9.779,68.94,8.934,69.31,8.934,69.31z"/>
</svg>
